<svg width="176" height="71" viewBox="0 0 176 71" fill="none" xmlns="http://www.w3.org/2000/svg">
<path d="M81.0605 20.7953V11.8805H82.9453V19.2413H86.7672V20.7953H81.0605ZM89.9002 11.8805V20.7953H88.0154V11.8805H89.9002ZM97.3622 14.7621C97.3013 14.5503 97.2157 14.3631 97.1054 14.2006C96.9951 14.0352 96.8602 13.8959 96.7006 13.7827C96.5439 13.6666 96.3639 13.5781 96.1608 13.5172C95.9606 13.4562 95.7386 13.4258 95.4948 13.4258C95.0392 13.4258 94.6387 13.5389 94.2934 13.7653C93.951 13.9916 93.684 14.321 93.4925 14.7534C93.3009 15.1829 93.2052 15.7082 93.2052 16.3292C93.2052 16.9502 93.2995 17.4783 93.4881 17.9136C93.6767 18.3489 93.9437 18.6812 94.289 18.9105C94.6344 19.1368 95.0421 19.25 95.5122 19.25C95.9388 19.25 96.303 19.1745 96.6048 19.0236C96.9095 18.8698 97.1417 18.6536 97.3013 18.3751C97.4638 18.0965 97.545 17.7671 97.545 17.3869L97.9281 17.4435H95.6297V16.0245H99.3602V17.1475C99.3602 17.9311 99.1948 18.6043 98.864 19.1673C98.5332 19.7274 98.0775 20.1598 97.4972 20.4645C96.9168 20.7663 96.2522 20.9172 95.5035 20.9172C94.6677 20.9172 93.9336 20.7329 93.3009 20.3643C92.6683 19.9929 92.175 19.4662 91.8209 18.7842C91.4698 18.0994 91.2942 17.2868 91.2942 16.3466C91.2942 15.624 91.3987 14.9798 91.6076 14.4139C91.8195 13.8451 92.1155 13.3634 92.4956 12.9687C92.8758 12.574 93.3183 12.2737 93.8233 12.0676C94.3282 11.8616 94.8752 11.7586 95.4643 11.7586C95.9693 11.7586 96.4394 11.8326 96.8747 11.9806C97.31 12.1257 97.6959 12.3317 98.0326 12.5987C98.3721 12.8657 98.6492 13.1835 98.864 13.552C99.0787 13.9176 99.2166 14.321 99.2775 14.7621H97.3622ZM102.037 20.7953H100.018L103.095 11.8805H105.524L108.597 20.7953H106.577L104.344 13.9176H104.275L102.037 20.7953ZM101.911 17.2912H106.682V18.7625H101.911V17.2912ZM115.667 20.7953H112.507V11.8805H115.694C116.59 11.8805 117.362 12.0589 118.009 12.4159C118.656 12.7699 119.154 13.2792 119.502 13.9438C119.853 14.6083 120.029 15.4035 120.029 16.3292C120.029 17.2578 119.853 18.0558 119.502 18.7233C119.154 19.3907 118.654 19.9029 118.001 20.2599C117.351 20.6168 116.573 20.7953 115.667 20.7953ZM114.392 19.1803H115.589C116.146 19.1803 116.615 19.0817 116.995 18.8843C117.378 18.6841 117.665 18.3751 117.857 17.9572C118.051 17.5364 118.149 16.9937 118.149 16.3292C118.149 15.6704 118.051 15.1321 117.857 14.7142C117.665 14.2964 117.38 13.9887 116.999 13.7914C116.619 13.5941 116.151 13.4954 115.593 13.4954H114.392V19.1803ZM123.31 11.8805V20.7953H121.425V11.8805H123.31ZM130.772 14.7621C130.711 14.5503 130.626 14.3631 130.515 14.2006C130.405 14.0352 130.27 13.8959 130.11 13.7827C129.954 13.6666 129.774 13.5781 129.571 13.5172C129.37 13.4562 129.148 13.4258 128.905 13.4258C128.449 13.4258 128.049 13.5389 127.703 13.7653C127.361 13.9916 127.094 14.321 126.902 14.7534C126.711 15.1829 126.615 15.7082 126.615 16.3292C126.615 16.9502 126.709 17.4783 126.898 17.9136C127.087 18.3489 127.354 18.6812 127.699 18.9105C128.044 19.1368 128.452 19.25 128.922 19.25C129.349 19.25 129.713 19.1745 130.015 19.0236C130.319 18.8698 130.552 18.6536 130.711 18.3751C130.874 18.0965 130.955 17.7671 130.955 17.3869L131.338 17.4435H129.04V16.0245H132.77V17.1475C132.77 17.9311 132.605 18.6043 132.274 19.1673C131.943 19.7274 131.487 20.1598 130.907 20.4645C130.327 20.7663 129.662 20.9172 128.913 20.9172C128.078 20.9172 127.343 20.7329 126.711 20.3643C126.078 19.9929 125.585 19.4662 125.231 18.7842C124.88 18.0994 124.704 17.2868 124.704 16.3466C124.704 15.624 124.809 14.9798 125.018 14.4139C125.229 13.8451 125.525 13.3634 125.906 12.9687C126.286 12.574 126.728 12.2737 127.233 12.0676C127.738 11.8616 128.285 11.7586 128.874 11.7586C129.379 11.7586 129.849 11.8326 130.285 11.9806C130.72 12.1257 131.106 12.3317 131.442 12.5987C131.782 12.8657 132.059 13.1835 132.274 13.552C132.489 13.9176 132.626 14.321 132.687 14.7621H130.772ZM136.071 11.8805V20.7953H134.186V11.8805H136.071ZM137.282 13.4345V11.8805H144.604V13.4345H141.874V20.7953H140.011V13.4345H137.282ZM146.257 20.7953H144.237L147.314 11.8805H149.743L152.816 20.7953H150.797L148.564 13.9176H148.494L146.257 20.7953ZM146.13 17.2912H150.901V18.7625H146.13V17.2912ZM153.889 20.7953V11.8805H155.774V19.2413H159.596V20.7953H153.889Z" fill="#0E244C"/>
<path d="M86.9469 29.1041C86.858 28.832 86.7407 28.5881 86.5952 28.3725C86.4524 28.1543 86.2813 27.9683 86.0819 27.8147C85.8852 27.6611 85.6615 27.5439 85.4109 27.4631C85.1603 27.3822 84.8855 27.3418 84.5863 27.3418C84.0959 27.3418 83.6499 27.4685 83.2484 27.7218C82.8469 27.9751 82.5276 28.3483 82.2905 28.8414C82.0534 29.3345 81.9348 29.9395 81.9348 30.6563C81.9348 31.3731 82.0547 31.978 82.2945 32.4711C82.5344 32.9643 82.8591 33.3375 83.2687 33.5908C83.6782 33.8441 84.139 33.9707 84.651 33.9707C85.1253 33.9707 85.543 33.8697 85.904 33.6676C86.2678 33.4628 86.5508 33.1744 86.7529 32.8026C86.9577 32.428 87.0601 31.9874 87.0601 31.4808L87.3673 31.5455H84.8774V30.6563H88.0301V31.5455C88.0301 32.2273 87.8846 32.8201 87.5936 33.324C87.3053 33.8279 86.9065 34.2186 86.3972 34.4962C85.8906 34.771 85.3085 34.9085 84.651 34.9085C83.9181 34.9085 83.274 34.736 82.7189 34.3911C82.1665 34.0462 81.7354 33.5557 81.4255 32.9198C81.1183 32.2839 80.9647 31.5293 80.9647 30.6563C80.9647 30.0015 81.0523 29.4127 81.2274 28.8899C81.4053 28.3644 81.6559 27.9171 81.9792 27.548C82.3026 27.1788 82.6853 26.8958 83.1272 26.6991C83.5691 26.5024 84.0555 26.4041 84.5863 26.4041C85.0229 26.4041 85.4298 26.4701 85.807 26.6021C86.187 26.7315 86.5252 26.9161 86.8216 27.1559C87.1207 27.393 87.3699 27.6773 87.5694 28.0087C87.7688 28.3375 87.9062 28.7026 87.9816 29.1041H86.9469ZM92.1399 34.9246C91.5794 34.9246 91.0876 34.7912 90.6645 34.5245C90.2442 34.2577 89.9154 33.8845 89.6783 33.4048C89.4438 32.9252 89.3266 32.3647 89.3266 31.7234C89.3266 31.0766 89.4438 30.5121 89.6783 30.0298C89.9154 29.5474 90.2442 29.1728 90.6645 28.9061C91.0876 28.6393 91.5794 28.5059 92.1399 28.5059C92.7004 28.5059 93.1908 28.6393 93.6112 28.9061C94.0342 29.1728 94.363 29.5474 94.5974 30.0298C94.8345 30.5121 94.9531 31.0766 94.9531 31.7234C94.9531 32.3647 94.8345 32.9252 94.5974 33.4048C94.363 33.8845 94.0342 34.2577 93.6112 34.5245C93.1908 34.7912 92.7004 34.9246 92.1399 34.9246ZM92.1399 34.0677C92.5656 34.0677 92.9159 33.9586 93.1908 33.7403C93.4656 33.5221 93.6691 33.2351 93.8011 32.8794C93.9332 32.5237 93.9992 32.1383 93.9992 31.7234C93.9992 31.3084 93.9332 30.9217 93.8011 30.5633C93.6691 30.2049 93.4656 29.9152 93.1908 29.6943C92.9159 29.4733 92.5656 29.3628 92.1399 29.3628C91.7141 29.3628 91.3638 29.4733 91.0889 29.6943C90.8141 29.9152 90.6106 30.2049 90.4786 30.5633C90.3466 30.9217 90.2805 31.3084 90.2805 31.7234C90.2805 32.1383 90.3466 32.5237 90.4786 32.8794C90.6106 33.2351 90.8141 33.5221 91.0889 33.7403C91.3638 33.9586 91.7141 34.0677 92.1399 34.0677ZM101.264 28.5868L98.9678 34.7953H97.9977L95.7019 28.5868H96.7366L98.4505 33.5342H98.5151L100.229 28.5868H101.264ZM104.904 34.9246C104.305 34.9246 103.789 34.7926 103.355 34.5285C102.924 34.2617 102.591 33.8899 102.357 33.4129C102.125 32.9333 102.009 32.3755 102.009 31.7395C102.009 31.1036 102.125 30.5431 102.357 30.058C102.591 29.5703 102.918 29.1904 103.335 28.9182C103.756 28.6433 104.246 28.5059 104.807 28.5059C105.13 28.5059 105.449 28.5598 105.764 28.6676C106.08 28.7754 106.367 28.9505 106.625 29.1931C106.884 29.4329 107.09 29.7509 107.244 30.147C107.397 30.5431 107.474 31.0308 107.474 31.6102V32.0144H102.689V31.1898H106.504C106.504 30.8395 106.434 30.5269 106.294 30.2521C106.157 29.9772 105.96 29.7603 105.704 29.6013C105.451 29.4423 105.151 29.3628 104.807 29.3628C104.427 29.3628 104.098 29.4571 103.82 29.6458C103.545 29.8317 103.334 30.0742 103.186 30.3733C103.037 30.6724 102.963 30.9931 102.963 31.3353V31.885C102.963 32.3539 103.044 32.7514 103.206 33.0774C103.37 33.4008 103.598 33.6474 103.889 33.8171C104.18 33.9842 104.518 34.0677 104.904 34.0677C105.154 34.0677 105.38 34.0327 105.583 33.9626C105.787 33.8899 105.964 33.7821 106.112 33.6393C106.26 33.4938 106.375 33.3132 106.456 33.0976L107.377 33.3563C107.28 33.6689 107.117 33.9438 106.888 34.1809C106.659 34.4153 106.376 34.5986 106.039 34.7306C105.702 34.86 105.324 34.9246 104.904 34.9246ZM108.925 34.7953V28.5868H109.847V29.5245H109.912C110.025 29.2173 110.23 28.9681 110.526 28.7767C110.822 28.5854 111.157 28.4897 111.528 28.4897C111.598 28.4897 111.686 28.4911 111.791 28.4938C111.896 28.4965 111.976 28.5005 112.03 28.5059V29.476C111.997 29.4679 111.923 29.4558 111.807 29.4396C111.694 29.4208 111.574 29.4113 111.448 29.4113C111.146 29.4113 110.876 29.4747 110.639 29.6013C110.405 29.7253 110.219 29.8977 110.081 30.1187C109.947 30.3369 109.879 30.5862 109.879 30.8665V34.7953H108.925ZM114.114 31.0605V34.7953H113.16V28.5868H114.082V29.5568H114.163C114.308 29.2416 114.529 28.9883 114.826 28.7969C115.122 28.6029 115.505 28.5059 115.974 28.5059C116.394 28.5059 116.762 28.5921 117.077 28.7646C117.392 28.9344 117.638 29.1931 117.813 29.5407C117.988 29.8856 118.075 30.3221 118.075 30.8503V34.7953H117.122V30.915C117.122 30.4272 116.995 30.0473 116.742 29.7751C116.488 29.5003 116.141 29.3628 115.699 29.3628C115.394 29.3628 115.122 29.4288 114.882 29.5609C114.645 29.6929 114.458 29.8856 114.32 30.1389C114.183 30.3922 114.114 30.6994 114.114 31.0605ZM122.341 34.9246C121.78 34.9246 121.289 34.7912 120.865 34.5245C120.445 34.2577 120.116 33.8845 119.879 33.4048C119.645 32.9252 119.528 32.3647 119.528 31.7234C119.528 31.0766 119.645 30.5121 119.879 30.0298C120.116 29.5474 120.445 29.1728 120.865 28.9061C121.289 28.6393 121.78 28.5059 122.341 28.5059C122.901 28.5059 123.392 28.6393 123.812 28.9061C124.235 29.1728 124.564 29.5474 124.798 30.0298C125.035 30.5121 125.154 31.0766 125.154 31.7234C125.154 32.3647 125.035 32.9252 124.798 33.4048C124.564 33.8845 124.235 34.2577 123.812 34.5245C123.392 34.7912 122.901 34.9246 122.341 34.9246ZM122.341 34.0677C122.767 34.0677 123.117 33.9586 123.392 33.7403C123.667 33.5221 123.87 33.2351 124.002 32.8794C124.134 32.5237 124.2 32.1383 124.2 31.7234C124.2 31.3084 124.134 30.9217 124.002 30.5633C123.87 30.2049 123.667 29.9152 123.392 29.6943C123.117 29.4733 122.767 29.3628 122.341 29.3628C121.915 29.3628 121.565 29.4733 121.29 29.6943C121.015 29.9152 120.812 30.2049 120.68 30.5633C120.547 30.9217 120.481 31.3084 120.481 31.7234C120.481 32.1383 120.547 32.5237 120.68 32.8794C120.812 33.2351 121.015 33.5221 121.29 33.7403C121.565 33.9586 121.915 34.0677 122.341 34.0677ZM132.495 34.7953H129.941V26.5172H132.608C133.412 26.5172 134.099 26.683 134.67 27.0144C135.241 27.3432 135.679 27.8161 135.984 28.4332C136.288 29.0475 136.44 29.7832 136.44 30.6401C136.44 31.5024 136.287 32.2448 135.98 32.8672C135.672 33.487 135.225 33.964 134.638 34.2981C134.05 34.6296 133.336 34.7953 132.495 34.7953ZM130.943 33.906H132.431C133.115 33.906 133.682 33.774 134.132 33.5099C134.582 33.2458 134.918 32.8699 135.139 32.3822C135.36 31.8945 135.47 31.3138 135.47 30.6401C135.47 29.9718 135.361 29.3965 135.143 28.9142C134.925 28.4291 134.599 28.0573 134.165 27.7986C133.731 27.5372 133.191 27.4065 132.544 27.4065H130.943V33.906ZM137.992 34.7953V28.5868H138.946V34.7953H137.992ZM138.477 27.552C138.292 27.552 138.131 27.4887 137.996 27.362C137.864 27.2354 137.798 27.0831 137.798 26.9053C137.798 26.7274 137.864 26.5752 137.996 26.4485C138.131 26.3219 138.292 26.2586 138.477 26.2586C138.663 26.2586 138.822 26.3219 138.954 26.4485C139.089 26.5752 139.157 26.7274 139.157 26.9053C139.157 27.0831 139.089 27.2354 138.954 27.362C138.822 27.4887 138.663 27.552 138.477 27.552ZM143.2 37.2528C142.739 37.2528 142.343 37.1935 142.011 37.075C141.68 36.9591 141.404 36.8055 141.183 36.6142C140.964 36.4256 140.791 36.2235 140.661 36.0079L141.421 35.4743C141.507 35.5875 141.616 35.7169 141.748 35.8624C141.881 36.0106 142.061 36.1386 142.29 36.2464C142.522 36.3569 142.825 36.4121 143.2 36.4121C143.701 36.4121 144.114 36.2908 144.44 36.0483C144.767 35.8058 144.93 35.4258 144.93 34.9085V33.6474H144.849C144.779 33.7605 144.679 33.9007 144.55 34.0677C144.423 34.2321 144.24 34.379 144 34.5083C143.763 34.635 143.442 34.6983 143.038 34.6983C142.537 34.6983 142.087 34.5797 141.688 34.3426C141.292 34.1055 140.978 33.7605 140.746 33.3078C140.517 32.8551 140.403 32.3054 140.403 31.6587C140.403 31.0227 140.514 30.469 140.738 29.9974C140.962 29.5232 141.273 29.1567 141.672 28.898C142.071 28.6366 142.531 28.5059 143.054 28.5059C143.458 28.5059 143.779 28.5733 144.016 28.708C144.256 28.8401 144.439 28.991 144.566 29.1607C144.695 29.3278 144.795 29.4652 144.865 29.573H144.962V28.5868H145.883V34.9731C145.883 35.5067 145.762 35.9405 145.52 36.2747C145.28 36.6115 144.957 36.8581 144.55 37.0144C144.145 37.1733 143.695 37.2528 143.2 37.2528ZM143.167 33.8414C143.55 33.8414 143.873 33.7538 144.137 33.5786C144.401 33.4035 144.602 33.1515 144.74 32.8228C144.877 32.494 144.946 32.1006 144.946 31.6425C144.946 31.1952 144.878 30.8004 144.744 30.4582C144.609 30.116 144.409 29.8479 144.145 29.6538C143.881 29.4598 143.555 29.3628 143.167 29.3628C142.763 29.3628 142.426 29.4652 142.157 29.67C141.89 29.8748 141.689 30.1497 141.554 30.4946C141.422 30.8395 141.356 31.2221 141.356 31.6425C141.356 32.0737 141.424 32.455 141.559 32.7864C141.696 33.1152 141.898 33.3738 142.165 33.5625C142.434 33.7484 142.768 33.8414 143.167 33.8414ZM147.63 34.7953V28.5868H148.584V34.7953H147.63ZM148.115 27.552C147.929 27.552 147.768 27.4887 147.634 27.362C147.502 27.2354 147.436 27.0831 147.436 26.9053C147.436 26.7274 147.502 26.5752 147.634 26.4485C147.768 26.3219 147.929 26.2586 148.115 26.2586C148.301 26.2586 148.46 26.3219 148.592 26.4485C148.726 26.5752 148.794 26.7274 148.794 26.9053C148.794 27.0831 148.726 27.2354 148.592 27.362C148.46 27.4887 148.301 27.552 148.115 27.552ZM153.031 28.5868V29.3952H149.813V28.5868H153.031ZM150.751 27.0993H151.705V33.0168C151.705 33.2863 151.744 33.4884 151.822 33.6231C151.903 33.7551 152.005 33.8441 152.129 33.8899C152.256 33.933 152.389 33.9545 152.53 33.9545C152.635 33.9545 152.721 33.9492 152.788 33.9384C152.856 33.9249 152.91 33.9141 152.95 33.906L153.144 34.763C153.079 34.7872 152.989 34.8115 152.873 34.8357C152.757 34.8627 152.61 34.8761 152.433 34.8761C152.163 34.8761 151.899 34.8182 151.64 34.7023C151.384 34.5865 151.171 34.4099 151.002 34.1728C150.835 33.9357 150.751 33.6366 150.751 33.2755V27.0993ZM156.293 34.9408C155.899 34.9408 155.542 34.8667 155.222 34.7185C154.901 34.5676 154.646 34.3507 154.458 34.0677C154.269 33.7821 154.175 33.4372 154.175 33.033C154.175 32.6773 154.245 32.3889 154.385 32.168C154.525 31.9443 154.712 31.7692 154.947 31.6425C155.181 31.5159 155.44 31.4216 155.723 31.3596C156.008 31.2949 156.295 31.2437 156.584 31.206C156.961 31.1575 157.267 31.1211 157.501 31.0968C157.738 31.0699 157.911 31.0254 158.019 30.9635C158.129 30.9015 158.184 30.7937 158.184 30.6401V30.6078C158.184 30.209 158.075 29.8991 157.857 29.6781C157.641 29.4571 157.314 29.3467 156.875 29.3467C156.419 29.3467 156.062 29.4464 155.804 29.6458C155.545 29.8452 155.363 30.058 155.258 30.2844L154.353 29.961C154.514 29.5838 154.73 29.2901 154.999 29.0799C155.271 28.867 155.568 28.7188 155.888 28.6353C156.212 28.549 156.53 28.5059 156.842 28.5059C157.042 28.5059 157.271 28.5302 157.53 28.5787C157.791 28.6245 158.043 28.7201 158.285 28.8657C158.531 29.0112 158.734 29.2308 158.896 29.5245C159.057 29.8182 159.138 30.2116 159.138 30.7048V34.7953H158.184V33.9545H158.136C158.071 34.0893 157.963 34.2334 157.812 34.387C157.662 34.5406 157.461 34.6713 157.21 34.7791C156.96 34.8869 156.654 34.9408 156.293 34.9408ZM156.438 34.0839C156.815 34.0839 157.133 34.0098 157.392 33.8616C157.653 33.7134 157.85 33.5221 157.982 33.2876C158.117 33.0532 158.184 32.8066 158.184 32.5479V31.6749C158.144 31.7234 158.055 31.7678 157.918 31.8082C157.783 31.846 157.627 31.8796 157.449 31.9093C157.274 31.9362 157.102 31.9605 156.935 31.982C156.771 32.0009 156.638 32.0171 156.535 32.0306C156.287 32.0629 156.056 32.1154 155.84 32.1882C155.627 32.2583 155.455 32.3647 155.323 32.5075C155.193 32.6476 155.129 32.839 155.129 33.0815C155.129 33.4129 155.251 33.6635 155.496 33.8333C155.744 34.0004 156.058 34.0839 156.438 34.0839ZM161.833 26.5172V34.7953H160.879V26.5172H161.833ZM83.5031 48.9246C82.9857 48.9246 82.529 48.7939 82.1328 48.5326C81.7367 48.2685 81.4268 47.8966 81.2032 47.417C80.9795 46.9346 80.8677 46.3647 80.8677 45.7072C80.8677 45.0551 80.9795 44.4892 81.2032 44.0095C81.4268 43.5299 81.7381 43.1594 82.1369 42.898C82.5357 42.6366 82.9965 42.5059 83.5193 42.5059C83.9235 42.5059 84.2428 42.5733 84.4772 42.708C84.7143 42.8401 84.8949 42.991 85.0188 43.1607C85.1455 43.3278 85.2438 43.4652 85.3139 43.573H85.3947V40.5172H86.3487V48.7953H85.4271V47.8414H85.3139C85.2438 47.9545 85.1441 48.0974 85.0148 48.2698C84.8855 48.4396 84.7009 48.5918 84.461 48.7266C84.2212 48.8586 83.9019 48.9246 83.5031 48.9246ZM83.6324 48.0677C84.0151 48.0677 84.3384 47.968 84.6025 47.7686C84.8666 47.5665 85.0673 47.2876 85.2048 46.9319C85.3422 46.5735 85.4109 46.1599 85.4109 45.691C85.4109 45.2275 85.3436 44.822 85.2088 44.4744C85.0741 44.1241 84.8747 43.8519 84.6106 43.6579C84.3465 43.4612 84.0205 43.3628 83.6324 43.3628C83.2282 43.3628 82.8914 43.4666 82.6219 43.6741C82.3552 43.8789 82.1544 44.1578 82.0197 44.5108C81.8876 44.8611 81.8216 45.2545 81.8216 45.691C81.8216 46.1329 81.889 46.5345 82.0237 46.8955C82.1611 47.2539 82.3632 47.5396 82.63 47.7524C82.8995 47.9626 83.2336 48.0677 83.6324 48.0677ZM90.8313 48.9246C90.233 48.9246 89.717 48.7926 89.2832 48.5285C88.852 48.2617 88.5192 47.8899 88.2848 47.4129C88.053 46.9333 87.9372 46.3755 87.9372 45.7395C87.9372 45.1036 88.053 44.5431 88.2848 44.058C88.5192 43.5703 88.8453 43.1904 89.263 42.9182C89.6833 42.6433 90.1738 42.5059 90.7342 42.5059C91.0576 42.5059 91.3769 42.5598 91.6922 42.6676C92.0075 42.7754 92.2945 42.9505 92.5532 43.1931C92.8118 43.4329 93.018 43.7509 93.1716 44.147C93.3252 44.5431 93.402 45.0308 93.402 45.6102V46.0144H88.6162V45.1898H92.4319C92.4319 44.8395 92.3618 44.5269 92.2217 44.2521C92.0843 43.9772 91.8876 43.7603 91.6316 43.6013C91.3783 43.4423 91.0792 43.3628 90.7342 43.3628C90.3543 43.3628 90.0255 43.4571 89.748 43.6458C89.4731 43.8317 89.2616 44.0742 89.1134 44.3733C88.9652 44.6724 88.8911 44.9931 88.8911 45.3353V45.885C88.8911 46.3539 88.9719 46.7514 89.1336 47.0774C89.298 47.4008 89.5257 47.6474 89.8167 47.8171C90.1077 47.9842 90.4459 48.0677 90.8313 48.0677C91.0819 48.0677 91.3082 48.0327 91.5103 47.9626C91.7151 47.8899 91.8916 47.7821 92.0398 47.6393C92.188 47.4938 92.3025 47.3132 92.3834 47.0976L93.305 47.3563C93.208 47.6689 93.0449 47.9438 92.8159 48.1809C92.5868 48.4153 92.3039 48.5986 91.9671 48.7306C91.6302 48.86 91.2516 48.9246 90.8313 48.9246ZM98.1837 48.7953V40.5172H100.981C101.63 40.5172 102.161 40.6345 102.573 40.8689C102.988 41.1006 103.295 41.4146 103.495 41.8107C103.694 42.2068 103.794 42.6487 103.794 43.1365C103.794 43.6242 103.694 44.0675 103.495 44.4663C103.298 44.8651 102.994 45.1831 102.581 45.4202C102.169 45.6546 101.641 45.7719 100.997 45.7719H98.9921V44.8826H100.965C101.409 44.8826 101.766 44.8058 102.036 44.6522C102.305 44.4986 102.501 44.2911 102.622 44.0298C102.746 43.7657 102.808 43.4679 102.808 43.1365C102.808 42.805 102.746 42.5086 102.622 42.2472C102.501 41.9858 102.304 41.781 102.032 41.6328C101.76 41.4819 101.398 41.4065 100.948 41.4065H99.1861V48.7953H98.1837ZM107.816 48.9246C107.218 48.9246 106.702 48.7926 106.268 48.5285C105.837 48.2617 105.504 47.8899 105.269 47.4129C105.038 46.9333 104.922 46.3755 104.922 45.7395C104.922 45.1036 105.038 44.5431 105.269 44.058C105.504 43.5703 105.83 43.1904 106.247 42.9182C106.668 42.6433 107.158 42.5059 107.719 42.5059C108.042 42.5059 108.361 42.5598 108.677 42.6676C108.992 42.7754 109.279 42.9505 109.538 43.1931C109.796 43.4329 110.003 43.7509 110.156 44.147C110.31 44.5431 110.387 45.0308 110.387 45.6102V46.0144H105.601V45.1898H109.416C109.416 44.8395 109.346 44.5269 109.206 44.2521C109.069 43.9772 108.872 43.7603 108.616 43.6013C108.363 43.4423 108.064 43.3628 107.719 43.3628C107.339 43.3628 107.01 43.4571 106.733 43.6458C106.458 43.8317 106.246 44.0742 106.098 44.3733C105.95 44.6724 105.876 44.9931 105.876 45.3353V45.885C105.876 46.3539 105.956 46.7514 106.118 47.0774C106.283 47.4008 106.51 47.6474 106.801 47.8171C107.092 47.9842 107.43 48.0677 107.816 48.0677C108.066 48.0677 108.293 48.0327 108.495 47.9626C108.7 47.8899 108.876 47.7821 109.024 47.6393C109.173 47.4938 109.287 47.3132 109.368 47.0976L110.29 47.3563C110.192 47.6689 110.029 47.9438 109.8 48.1809C109.571 48.4153 109.288 48.5986 108.952 48.7306C108.615 48.86 108.236 48.9246 107.816 48.9246ZM111.838 48.7953V42.5868H112.759V43.5245H112.824C112.937 43.2173 113.142 42.9681 113.438 42.7767C113.735 42.5854 114.069 42.4897 114.441 42.4897C114.511 42.4897 114.598 42.4911 114.703 42.4938C114.808 42.4965 114.888 42.5005 114.942 42.5059V43.476C114.91 43.4679 114.835 43.4558 114.72 43.4396C114.606 43.4208 114.486 43.4113 114.36 43.4113C114.058 43.4113 113.789 43.4747 113.551 43.6013C113.317 43.7253 113.131 43.8977 112.994 44.1187C112.859 44.3369 112.792 44.5862 112.792 44.8665V48.7953H111.838ZM117.027 45.0605V48.7953H116.073V42.5868H116.994V43.5568H117.075C117.221 43.2416 117.442 42.9883 117.738 42.7969C118.034 42.6029 118.417 42.5059 118.886 42.5059C119.306 42.5059 119.674 42.5921 119.989 42.7646C120.305 42.9344 120.55 43.1931 120.725 43.5407C120.9 43.8856 120.988 44.3221 120.988 44.8503V48.7953H120.034V44.915C120.034 44.4272 119.907 44.0473 119.654 43.7751C119.401 43.5003 119.053 43.3628 118.611 43.3628C118.307 43.3628 118.034 43.4288 117.795 43.5609C117.557 43.6929 117.37 43.8856 117.233 44.1389C117.095 44.3922 117.027 44.6994 117.027 45.0605ZM124.558 48.9408C124.164 48.9408 123.807 48.8667 123.487 48.7185C123.166 48.5676 122.911 48.3507 122.723 48.0677C122.534 47.7821 122.44 47.4372 122.44 47.033C122.44 46.6773 122.51 46.3889 122.65 46.168C122.79 45.9443 122.977 45.7692 123.212 45.6425C123.446 45.5159 123.705 45.4216 123.988 45.3596C124.274 45.2949 124.561 45.2437 124.849 45.206C125.226 45.1575 125.532 45.1211 125.766 45.0968C126.004 45.0699 126.176 45.0254 126.284 44.9635C126.394 44.9015 126.449 44.7937 126.449 44.6401V44.6078C126.449 44.209 126.34 43.8991 126.122 43.6781C125.906 43.4571 125.579 43.3467 125.14 43.3467C124.684 43.3467 124.327 43.4464 124.069 43.6458C123.81 43.8452 123.628 44.058 123.523 44.2844L122.618 43.961C122.779 43.5838 122.995 43.2901 123.264 43.0799C123.537 42.867 123.833 42.7188 124.154 42.6353C124.477 42.549 124.795 42.5059 125.108 42.5059C125.307 42.5059 125.536 42.5302 125.795 42.5787C126.056 42.6245 126.308 42.7201 126.551 42.8657C126.796 43.0112 126.999 43.2308 127.161 43.5245C127.323 43.8182 127.403 44.2116 127.403 44.7048V48.7953H126.449V47.9545H126.401C126.336 48.0893 126.229 48.2334 126.078 48.387C125.927 48.5406 125.726 48.6713 125.475 48.7791C125.225 48.8869 124.919 48.9408 124.558 48.9408ZM124.703 48.0839C125.081 48.0839 125.399 48.0098 125.657 47.8616C125.919 47.7134 126.115 47.5221 126.247 47.2876C126.382 47.0532 126.449 46.8066 126.449 46.5479V45.6749C126.409 45.7234 126.32 45.7678 126.183 45.8082C126.048 45.846 125.892 45.8796 125.714 45.9093C125.539 45.9362 125.368 45.9605 125.2 45.982C125.036 46.0009 124.903 46.0171 124.8 46.0306C124.552 46.0629 124.321 46.1154 124.105 46.1882C123.892 46.2583 123.72 46.3647 123.588 46.5075C123.458 46.6476 123.394 46.839 123.394 47.0815C123.394 47.4129 123.516 47.6635 123.762 47.8333C124.009 48.0004 124.323 48.0839 124.703 48.0839ZM129.144 48.7953V42.5868H130.066V43.5568H130.147C130.276 43.2254 130.485 42.9681 130.773 42.7848C131.062 42.5989 131.408 42.5059 131.812 42.5059C132.222 42.5059 132.563 42.5989 132.835 42.7848C133.11 42.9681 133.324 43.2254 133.478 43.5568H133.542C133.701 43.2362 133.94 42.9815 134.258 42.7929C134.576 42.6016 134.957 42.5059 135.402 42.5059C135.957 42.5059 136.411 42.6797 136.764 43.0273C137.117 43.3723 137.293 43.9098 137.293 44.6401V48.7953H136.339V44.6401C136.339 44.182 136.214 43.8546 135.963 43.6579C135.713 43.4612 135.418 43.3628 135.078 43.3628C134.642 43.3628 134.303 43.4949 134.064 43.7589C133.824 44.0203 133.704 44.3518 133.704 44.7533V48.7953H132.734V44.5431C132.734 44.1901 132.619 43.9058 132.39 43.6902C132.161 43.472 131.866 43.3628 131.505 43.3628C131.257 43.3628 131.025 43.4288 130.81 43.5609C130.597 43.6929 130.424 43.8762 130.292 44.1106C130.163 44.3423 130.098 44.6105 130.098 44.915V48.7953H129.144ZM139.167 48.7953V40.5172H140.121V43.573H140.201C140.271 43.4652 140.368 43.3278 140.492 43.1607C140.619 42.991 140.8 42.8401 141.034 42.708C141.271 42.5733 141.592 42.5059 141.996 42.5059C142.519 42.5059 142.98 42.6366 143.378 42.898C143.777 43.1594 144.088 43.5299 144.312 44.0095C144.536 44.4892 144.648 45.0551 144.648 45.7072C144.648 46.3647 144.536 46.9346 144.312 47.417C144.088 47.8966 143.779 48.2685 143.382 48.5326C142.986 48.7939 142.53 48.9246 142.012 48.9246C141.613 48.9246 141.294 48.8586 141.054 48.7266C140.814 48.5918 140.63 48.4396 140.501 48.2698C140.371 48.0974 140.271 47.9545 140.201 47.8414H140.088V48.7953H139.167ZM140.104 45.691C140.104 46.1599 140.173 46.5735 140.311 46.9319C140.448 47.2876 140.649 47.5665 140.913 47.7686C141.177 47.968 141.5 48.0677 141.883 48.0677C142.282 48.0677 142.614 47.9626 142.881 47.7524C143.151 47.5396 143.353 47.2539 143.488 46.8955C143.625 46.5345 143.694 46.1329 143.694 45.691C143.694 45.2545 143.626 44.8611 143.492 44.5108C143.36 44.1578 143.159 43.8789 142.889 43.6741C142.623 43.4666 142.287 43.3628 141.883 43.3628C141.495 43.3628 141.169 43.4612 140.905 43.6579C140.641 43.8519 140.441 44.1241 140.307 44.4744C140.172 44.822 140.104 45.2275 140.104 45.691ZM150.019 46.2569V42.5868H150.973V48.7953H150.019V47.7444H149.955C149.809 48.0596 149.583 48.3278 149.276 48.5487C148.969 48.767 148.581 48.8761 148.112 48.8761C147.724 48.8761 147.379 48.7912 147.077 48.6215C146.775 48.449 146.538 48.1903 146.365 47.8454C146.193 47.4978 146.107 47.0599 146.107 46.5318V42.5868H147.061V46.4671C147.061 46.9198 147.187 47.2809 147.441 47.5503C147.697 47.8198 148.023 47.9545 148.419 47.9545C148.656 47.9545 148.897 47.8939 149.142 47.7727C149.39 47.6514 149.598 47.4655 149.765 47.2149C149.935 46.9643 150.019 46.6449 150.019 46.2569ZM155.243 48.9246C154.661 48.9246 154.159 48.7872 153.739 48.5123C153.319 48.2375 152.995 47.8589 152.769 47.3765C152.543 46.8942 152.43 46.3431 152.43 45.7234C152.43 45.0928 152.545 44.5364 152.777 44.054C153.012 43.569 153.338 43.1904 153.755 42.9182C154.176 42.6433 154.666 42.5059 155.227 42.5059C155.663 42.5059 156.057 42.5868 156.407 42.7484C156.757 42.9101 157.044 43.1365 157.268 43.4275C157.491 43.7185 157.63 44.058 157.684 44.4461H156.73C156.657 44.1631 156.496 43.9125 156.245 43.6943C155.997 43.4733 155.663 43.3628 155.243 43.3628C154.871 43.3628 154.545 43.4598 154.265 43.6538C153.987 43.8452 153.77 44.116 153.614 44.4663C153.46 44.8139 153.383 45.2221 153.383 45.691C153.383 46.1707 153.459 46.5883 153.61 46.944C153.763 47.2997 153.979 47.5759 154.257 47.7727C154.537 47.9694 154.866 48.0677 155.243 48.0677C155.491 48.0677 155.716 48.0246 155.918 47.9384C156.12 47.8522 156.291 47.7282 156.431 47.5665C156.571 47.4048 156.671 47.2108 156.73 46.9845H157.684C157.63 47.3509 157.497 47.681 157.284 47.9748C157.074 48.2658 156.795 48.4975 156.447 48.67C156.102 48.8398 155.701 48.9246 155.243 48.9246ZM161.601 48.9246C161.04 48.9246 160.549 48.7912 160.126 48.5245C159.705 48.2577 159.376 47.8845 159.139 47.4048C158.905 46.9252 158.788 46.3647 158.788 45.7234C158.788 45.0766 158.905 44.5121 159.139 44.0298C159.376 43.5474 159.705 43.1728 160.126 42.9061C160.549 42.6393 161.04 42.5059 161.601 42.5059C162.161 42.5059 162.652 42.6393 163.072 42.9061C163.495 43.1728 163.824 43.5474 164.058 44.0298C164.296 44.5121 164.414 45.0766 164.414 45.7234C164.414 46.3647 164.296 46.9252 164.058 47.4048C163.824 47.8845 163.495 48.2577 163.072 48.5245C162.652 48.7912 162.161 48.9246 161.601 48.9246ZM161.601 48.0677C162.027 48.0677 162.377 47.9586 162.652 47.7403C162.927 47.5221 163.13 47.2351 163.262 46.8794C163.394 46.5237 163.46 46.1383 163.46 45.7234C163.46 45.3084 163.394 44.9217 163.262 44.5633C163.13 44.2049 162.927 43.9152 162.652 43.6943C162.377 43.4733 162.027 43.3628 161.601 43.3628C161.175 43.3628 160.825 43.4733 160.55 43.6943C160.275 43.9152 160.072 44.2049 159.94 44.5633C159.808 44.9217 159.742 45.3084 159.742 45.7234C159.742 46.1383 159.808 46.5237 159.94 46.8794C160.072 47.2351 160.275 47.5221 160.55 47.7403C160.825 47.9586 161.175 48.0677 161.601 48.0677Z" fill="#6D6D6D"/>
<path d="M52.0539 0.915283H12.4531C12.4531 0.915283 0.171875 1.66986 0.171875 12.9885V48.4535C0.171875 53.2325 26.2382 70.0847 34.008 70.0847C39.522 70.0847 64.3352 55.9993 65.839 49.2081V12.9885C65.839 0.915283 52.0539 0.915283 52.0539 0.915283Z" fill="#0E244C"/>
<g filter="url(#filter0_d_294_4729)">
<path d="M42.2091 16.6754L42.2667 16.693C45.8686 17.7926 52.972 22.5868 52.972 32.9812C52.972 43.3856 45.8548 47.6536 42.2389 48.4815L42.1945 48.4916H24.3451L24.2277 48.3752C22.6922 46.8518 22.3513 45.2315 22.5822 43.8243C22.809 42.4418 23.581 41.2956 24.2277 40.6541L24.3451 40.5376H39.9956C44.3113 36.8227 45.1307 33.4846 44.524 30.8527C43.9127 28.2012 41.8276 26.1366 40.0312 25.0272H31.0904L39.5089 33.3789H29.3214C28.1117 33.3789 26.3143 32.9801 24.8107 31.7798C23.2899 30.5657 22.1055 28.5594 22.1055 25.4249C22.1055 19.2775 24.8385 17.0002 26.4368 16.6831L26.4757 16.6754H42.2091Z" fill="#03AEFF"/>
</g>
<path d="M23.8899 17.8447C24.1136 18.0078 24.382 18.2677 24.382 18.6226V40.5265H40.4005L40.4014 40.5264H40.4962L40.5238 40.5265L40.5296 40.5265L40.5523 40.5265L41.0595 40.5265L41.0665 40.5265H41.3213L41.3228 40.5265L41.7237 40.5265C42.6477 40.5265 43.2394 41.1317 43.5652 41.8888C43.8874 42.6373 43.9885 43.6007 43.9363 44.5311C43.8838 45.4647 43.6743 46.4125 43.3337 47.1405C43.1636 47.5042 42.9519 47.8321 42.6936 48.0744C42.4323 48.3193 41.7024 48.6333 41.3207 48.6333H15.932H15.5293L15.5293 48.2348L15.9321 34.4033C15.932 27.3842 15.932 20.0164 15.9323 18.6225C15.9324 18.1743 16.0899 17.7966 16.3697 17.501C16.6414 17.214 17.0095 17.0234 17.4083 16.8988C18.2013 16.6509 19.2204 16.6311 20.1995 16.7331C21.1853 16.8358 22.176 17.0669 22.9301 17.355C23.3051 17.4983 23.6404 17.6627 23.8899 17.8447Z" fill="#EA2327"/>
<path d="M24.2061 18.1018C24.3079 18.2351 24.3818 18.394 24.3818 18.5793V31.3596C23.0739 30.1217 22.1055 28.2126 22.1055 25.3811C22.1055 21.7101 23.0805 19.4193 24.2061 18.1018Z" fill="#FFA600"/>
<path d="M45.2632 44.4743C45.2632 46.7713 43.4011 48.6333 41.1042 48.6333C38.8073 48.6333 36.9453 46.7713 36.9453 44.4743C36.9453 42.1774 38.8073 40.3154 41.1042 40.3154C43.4011 40.3154 45.2632 42.1774 45.2632 44.4743Z" fill="#43DE35"/>
<defs>
<filter id="filter0_d_294_4729" x="20.3543" y="16.6754" width="34.3689" height="35.3184" filterUnits="userSpaceOnUse" color-interpolation-filters="sRGB">
<feFlood flood-opacity="0" result="BackgroundImageFix"/>
<feColorMatrix in="SourceAlpha" type="matrix" values="0 0 0 0 0 0 0 0 0 0 0 0 0 0 0 0 0 0 127 0" result="hardAlpha"/>
<feOffset dy="1.75112"/>
<feGaussianBlur stdDeviation="0.875562"/>
<feComposite in2="hardAlpha" operator="out"/>
<feColorMatrix type="matrix" values="0 0 0 0 0 0 0 0 0 0 0 0 0 0 0 0 0 0 0.25 0"/>
<feBlend mode="normal" in2="BackgroundImageFix" result="effect1_dropShadow_294_4729"/>
<feBlend mode="normal" in="SourceGraphic" in2="effect1_dropShadow_294_4729" result="shape"/>
</filter>
</defs>
</svg>
